<?xml version="1.0" standalone="no"?>
<!DOCTYPE svg PUBLIC "-//W3C//DTD SVG 20010904//EN"
 "http://www.w3.org/TR/2001/REC-SVG-20010904/DTD/svg10.dtd">
<svg version="1.0" xmlns="http://www.w3.org/2000/svg"
 width="1200.000000pt" height="1200.000000pt" viewBox="0 0 1200.000000 1200.000000"
 preserveAspectRatio="xMidYMid meet">
<metadata>
Created by potrace 1.11, written by Peter Selinger 2001-2013
</metadata>
<g transform="translate(0.000000,1200.000000) scale(0.100000,-0.100000)"
fill="#000000" stroke="none">
<path d="M1589 10946 c-2 -2 -23 -7 -47 -11 -23 -3 -61 -13 -84 -21 -225 -79
-389 -254 -455 -484 -17 -61 -18 -126 -18 -1135 0 -1017 1 -1073 19 -1130 55
-178 166 -323 314 -412 71 -42 158 -78 208 -86 42 -7 54 -13 254 -148 429
-288 938 -659 1291 -941 l34 -28 -815 -1 c-448 0 -828 -3 -845 -5 -76 -12
-202 -66 -245 -106 -11 -10 -22 -18 -24 -18 -10 0 -67 -64 -98 -108 -218 -316
-51 -750 327 -847 51 -13 180 -15 903 -15 l844 0 -139 -107 c-76 -60 -174
-135 -218 -168 -44 -33 -82 -62 -85 -65 -3 -3 -39 -30 -80 -60 -41 -30 -77
-57 -80 -60 -3 -3 -90 -68 -195 -145 -104 -76 -212 -155 -240 -175 -52 -39
-360 -255 -503 -354 -46 -31 -116 -69 -155 -83 -221 -80 -387 -254 -454 -478
-16 -56 -18 -136 -21 -1100 -3 -1125 -3 -1122 51 -1250 77 -185 238 -336 422
-397 113 -37 119 -38 1205 -35 1038 3 1056 3 1116 23 244 84 414 257 475 483
23 85 71 171 282 510 171 274 316 495 329 499 5 2 26 -7 46 -20 66 -43 126
-68 389 -164 105 -38 124 -142 34 -188 -74 -39 -161 -24 -340 56 -101 46 -124
52 -182 53 -56 0 -71 -4 -101 -27 -65 -49 -83 -91 -83 -188 0 -122 36 -182
155 -259 121 -78 272 -118 457 -120 196 -3 332 28 444 100 155 100 226 238
234 449 9 218 -62 370 -220 475 -52 34 -207 100 -380 160 -83 30 -145 77 -145
111 0 35 43 84 84 95 58 16 105 5 251 -56 208 -88 345 -18 352 179 2 84 -24
145 -86 198 -42 35 -147 92 -195 104 -14 3 -26 9 -26 13 1 5 96 128 254 326
46 58 369 445 402 482 16 17 52 58 79 90 53 61 98 111 211 232 38 40 79 86 92
101 l23 28 46 -49 c42 -46 147 -118 176 -123 7 -1 17 -4 22 -8 13 -8 96 -31
115 -32 8 -1 20 -4 25 -7 18 -9 220 1 220 11 0 2 37 9 63 12 6 1 12 6 12 11 0
6 3 7 6 4 12 -11 142 64 188 107 23 23 59 66 79 96 61 93 66 130 70 454 l2
288 415 -1 c1073 -5 2479 -6 2510 -2 19 3 41 10 49 15 8 6 17 10 20 8 9 -4
111 42 111 50 0 5 6 8 14 8 7 0 43 28 79 63 49 46 78 85 112 151 25 48 44 91
41 93 -3 3 0 20 7 37 15 37 15 170 -1 244 -7 30 -28 85 -48 123 -77 146 -198
242 -358 283 -59 16 -38 15 -1218 19 -324 1 -588 5 -588 8 0 3 69 54 152 114
84 60 169 120 188 134 68 50 620 421 740 498 444 282 529 332 566 339 113 19
249 93 346 189 80 78 140 177 182 299 20 60 20 79 23 1116 3 1150 4 1122 -54
1254 -94 212 -295 376 -513 415 -19 3 -514 6 -1100 6 l-1065 0 -80 -28 c-66
-24 -187 -86 -205 -106 -3 -4 -23 -21 -45 -40 -100 -86 -180 -218 -214 -356
-11 -42 -32 -96 -48 -118 -180 -266 -531 -761 -600 -847 -6 -8 -69 -91 -139
-185 -70 -93 -133 -176 -140 -185 -7 -8 -41 -51 -76 -95 -143 -184 -210 -265
-216 -265 -4 0 -22 22 -40 49 -30 45 -122 138 -122 124 0 -4 -11 4 -24 16 -13
12 -59 36 -101 52 -87 34 -209 46 -300 29 -59 -11 -165 -51 -165 -62 0 -5 -6
-8 -13 -8 -58 0 -237 -223 -237 -295 0 -25 -15 -11 -82 78 -34 45 -64 84 -67
87 -3 3 -28 36 -56 73 -27 38 -59 81 -71 95 -19 24 -249 342 -282 389 -181
259 -309 447 -417 613 -207 319 -231 362 -239 422 -21 158 -152 355 -301 452
-57 37 -163 85 -203 92 -15 3 -45 9 -67 14 -38 9 -2097 14 -2106 6z m1822
-734 c56 -37 94 -75 131 -131 l28 -45 0 -746 0 -746 -28 -45 c-16 -24 -42 -57
-58 -73 -16 -16 -49 -42 -73 -58 l-45 -28 -746 0 -746 0 -45 28 c-56 37 -94
75 -131 131 l-28 45 0 746 0 746 28 45 c37 56 75 94 131 131 l45 28 746 0 746
0 45 -28z m6700 0 c56 -37 94 -75 131 -131 l28 -45 0 -746 0 -746 -28 -45
c-16 -24 -42 -57 -58 -73 -16 -16 -49 -42 -73 -58 -39 -24 -54 -28 -121 -28
-64 0 -78 3 -90 20 -8 11 -18 20 -22 20 -4 0 -8 -9 -8 -20 0 -20 -7 -20 -648
-20 l-648 0 -45 28 c-56 37 -94 75 -131 131 l-28 45 0 746 0 746 28 45 c16 24
42 57 58 73 16 16 49 42 73 58 l45 28 746 0 746 0 45 -28z m-6701 -6680 c57
-37 95 -75 132 -131 l28 -45 0 -746 0 -746 -28 -45 c-37 -56 -75 -94 -131
-131 l-45 -28 -746 0 -746 0 -45 28 c-56 37 -94 75 -131 131 l-28 45 0 746 0
746 28 45 c36 56 75 94 131 130 l44 29 747 0 746 0 44 -28z"/>
<path d="M2518 9824 c-3 -2 -14 -6 -24 -8 -86 -17 -169 -58 -241 -119 -145
-122 -217 -322 -184 -513 13 -72 84 -232 108 -241 7 -3 13 -11 13 -19 0 -8 3
-14 8 -14 4 0 25 -18 47 -40 22 -21 46 -39 53 -40 6 0 12 -4 12 -9 0 -10 98
-54 166 -74 73 -21 221 -16 304 11 162 53 295 185 351 347 40 118 31 302 -20
400 -8 17 -15 32 -16 35 -1 17 -135 179 -135 165 0 -3 -9 4 -19 14 -23 23
-153 87 -196 97 -37 8 -220 15 -227 8z"/>
<path d="M9220 9824 c-70 -14 -186 -61 -216 -88 -7 -6 -28 -22 -46 -35 -37
-27 -118 -122 -118 -140 0 -6 -4 -11 -10 -11 -6 0 -9 -3 -8 -7 1 -5 -5 -22
-15 -39 -9 -17 -13 -34 -10 -38 4 -3 2 -6 -4 -6 -5 0 -10 -6 -11 -12 0 -7 -4
-29 -9 -48 -12 -53 -8 -220 6 -265 30 -95 97 -208 145 -246 12 -9 33 -28 47
-41 22 -21 104 -66 164 -90 71 -28 236 -33 320 -8 109 31 235 115 286 190 13
19 27 37 31 40 15 11 69 142 76 183 12 69 8 209 -7 262 -25 88 -91 198 -150
250 -19 16 -40 36 -47 43 -7 6 -17 12 -23 12 -6 0 -11 5 -11 10 0 6 -6 10 -14
10 -8 0 -16 4 -18 9 -1 5 -37 21 -78 36 -74 26 -215 41 -280 29z"/>
<path d="M9508 8725 c3 -17 11 -25 25 -25 20 0 20 1 -3 25 -13 14 -24 25 -25
25 -1 0 0 -11 3 -25z"/>
<path d="M9560 8680 c0 -5 5 -10 11 -10 5 0 7 5 4 10 -3 6 -8 10 -11 10 -2 0
-4 -4 -4 -10z"/>
<path d="M9120 8600 c0 -5 5 -10 10 -10 6 0 10 5 10 10 0 6 -4 10 -10 10 -5 0
-10 -4 -10 -10z"/>
<path d="M2485 3135 c-56 -14 -117 -37 -125 -46 -3 -4 -14 -9 -25 -13 -11 -3
-32 -17 -47 -31 -15 -14 -30 -25 -33 -25 -9 0 -63 -60 -95 -106 -149 -212
-124 -520 55 -694 88 -86 166 -130 271 -155 54 -13 181 -14 244 -2 80 14 206
85 272 150 33 34 112 147 102 147 -3 0 -2 6 3 13 11 12 29 64 41 114 3 15 6
71 6 123 0 72 -5 111 -22 162 -36 104 -109 208 -182 258 -12 8 -30 22 -40 31
-11 8 -38 24 -62 33 -24 10 -52 22 -63 27 -66 29 -215 35 -300 14z"/>
<path d="M5890 10944 c-107 -21 -227 -84 -302 -158 -208 -207 -208 -556 -2
-769 186 -191 488 -221 706 -69 57 40 148 134 148 153 0 4 6 14 13 21 17 17
54 111 66 166 15 68 10 184 -9 256 -50 178 -180 316 -354 376 -60 21 -212 34
-266 24z"/>
<path d="M10330 5234 c-102 -27 -213 -92 -273 -159 -30 -33 -98 -135 -91 -135
3 0 2 -6 -3 -12 -42 -54 -64 -257 -39 -353 15 -55 46 -137 55 -145 4 -3 18
-23 32 -45 33 -50 82 -99 134 -134 22 -14 42 -28 45 -32 9 -10 94 -41 150 -55
140 -34 268 -10 431 81 39 22 142 135 168 186 64 121 85 271 56 393 -48 202
-204 359 -410 413 -48 12 -203 11 -255 -3z"/>
<path d="M8526 3474 c-262 -41 -470 -200 -592 -454 -24 -50 -51 -122 -61 -164
-18 -75 -23 -110 -29 -181 -34 -399 96 -728 359 -907 132 -90 270 -129 466
-133 262 -4 464 73 616 237 162 175 242 405 239 688 -1 152 -16 245 -56 365
-102 299 -341 505 -638 551 -78 11 -222 11 -304 -2z m299 -508 c129 -64 195
-200 196 -407 2 -274 -127 -441 -339 -440 -204 1 -331 155 -337 411 -5 204 48
340 160 417 84 58 223 66 320 19z"/>
<path d="M6307 3457 c-58 -19 -107 -64 -136 -126 l-26 -56 0 -705 c0 -802 -3
-773 75 -851 38 -38 57 -49 103 -59 127 -26 230 20 278 125 25 55 27 88 28
321 l1 201 253 -1 252 -1 2 -213 c1 -235 10 -291 54 -352 43 -59 98 -84 189
-84 135 0 214 68 237 203 3 20 6 338 6 707 0 497 -3 684 -13 722 -26 111 -104
173 -222 178 -57 3 -75 -1 -120 -24 -61 -32 -101 -85 -118 -153 -6 -26 -12
-142 -13 -260 l-2 -213 -252 -1 -252 0 -4 230 c-2 146 -8 244 -16 268 -14 44
-72 112 -113 133 -39 20 -145 26 -191 11z"/>
<path d="M9709 3456 c-111 -40 -166 -148 -147 -290 13 -96 65 -166 143 -193
17 -5 97 -10 179 -11 82 -1 152 -4 155 -8 3 -3 7 -247 8 -543 1 -371 5 -551
13 -582 35 -132 152 -198 299 -168 42 9 63 20 96 53 77 78 77 72 78 696 l2
550 40 1 c22 0 94 1 160 1 66 0 131 5 145 11 97 41 140 117 141 247 0 108 -40
183 -122 223 l-52 26 -551 0 c-427 0 -559 -3 -587 -13z"/>
</g>
</svg>
